%
M48
M72
T01C0.0394
%
T01
X1633Y1600
X833Y2100
X1633Y2600
X833Y3100
X1633Y3600
X833Y4100
X1633Y4600
X833Y5100
X1633Y5600
X833Y6100
X1633Y6600
X833Y7100
X1633Y7600
X833Y8100
X1633Y8600
X833Y9100
X1633Y9600
X833Y10100
X1633Y10600
X833Y11100
X1633Y11600
X833Y12100
X1633Y12600
X833Y13100
X1633Y13600
X833Y14100
X1633Y14600
X833Y15100
X1633Y15600
X833Y16100
X1633Y16600
X833Y17100
X1633Y17600
X833Y18100
X1633Y18600
X833Y19100
X2633Y18600
X2633Y17600
X2633Y16600
X2633Y15600
X2633Y14600
X2633Y13600
X2633Y12600
X2633Y11600
X2633Y10600
X2633Y9600
X2633Y8600
X2633Y7600
X2633Y6600
X2633Y5600
X2633Y4600
X2633Y3600
X2633Y2600
X2633Y1600
X2133Y800
X3133Y800
X3633Y1600
X4133Y800
X4633Y1600
X5133Y800
X5633Y1600
X6133Y800
X6633Y1600
X7133Y800
X7633Y1600
X8133Y800
X8633Y1600
X9133Y800
X9633Y1600
X10133Y800
X10633Y1600
X11133Y800
X11633Y1600
X12133Y800
X12633Y1600
X13133Y800
X13633Y1600
X14133Y800
X14633Y1600
X15133Y800
X15633Y1600
X16133Y800
X16633Y1600
X17133Y800
X17633Y1600
X18133Y800
X18633Y1600
X19133Y800
X18633Y2600
X17633Y2600
X16633Y2600
X15633Y2600
X14633Y2600
X13633Y2600
X12633Y2600
X11633Y2600
X10633Y2600
X9633Y2600
X8633Y2600
X7633Y2600
X6633Y2600
X5633Y2600
X4633Y2600
X3633Y2600
X3633Y3600
X3633Y4600
X3633Y5600
X3633Y6600
X3633Y7600
X3633Y8600
X3633Y9600
X3633Y10600
X3633Y11600
X3633Y12600
X3633Y13600
X3633Y14600
X3633Y15600
X3633Y16600
X3633Y17600
X3633Y18600
X4633Y18600
X4633Y17600
X4633Y16600
X4633Y15600
X4633Y14600
X4633Y13600
X4633Y12600
X4633Y11600
X4633Y10600
X4633Y9600
X4633Y8600
X4633Y7600
X4633Y6600
X4633Y5600
X4633Y4600
X4633Y3600
X5633Y3600
X5633Y4600
X5633Y5600
X5633Y6600
X5633Y7600
X5633Y8600
X5633Y9600
X5633Y10600
X5633Y11600
X5633Y12600
X5633Y13600
X5633Y14600
X5633Y15600
X5633Y16600
X5633Y17600
X5633Y18600
X6633Y18600
X6633Y17600
X6633Y16600
X6633Y15600
X6633Y14600
X6633Y13600
X6633Y12600
X6633Y11600
X6633Y10600
X6633Y9600
X6633Y8600
X6633Y7600
X6633Y6600
X6633Y5600
X6633Y4600
X6633Y3600
X7633Y3600
X7633Y4600
X7633Y5600
X7633Y6600
X7633Y7600
X7633Y8600
X7633Y9600
X7633Y10600
X7633Y11600
X7633Y12600
X7633Y13600
X7633Y14600
X7633Y15600
X7633Y16600
X7633Y17600
X7633Y18600
X8633Y18600
X8633Y17600
X8633Y16600
X8633Y15600
X8633Y14600
X8633Y13600
X8633Y12600
X8633Y11600
X8633Y10600
X8633Y9600
X8633Y8600
X8633Y7600
X8633Y6600
X8633Y5600
X8633Y4600
X8633Y3600
X9633Y3600
X9633Y4600
X9633Y5600
X9633Y6600
X9633Y7600
X9633Y8600
X9633Y9600
X9633Y10600
X9633Y11600
X9633Y12600
X9633Y13600
X9633Y14600
X9633Y15600
X9633Y16600
X9633Y17600
X9633Y18600
X10633Y18600
X10633Y17600
X10633Y16600
X10633Y15600
X10633Y14600
X10633Y13600
X10633Y12600
X10633Y11600
X10633Y10600
X10633Y9600
X10633Y8600
X10633Y7600
X10633Y6600
X10633Y5600
X10633Y4600
X10633Y3600
X11633Y3600
X11633Y4600
X11633Y5600
X11633Y6600
X11633Y7600
X11633Y8600
X11633Y9600
X11633Y10600
X11633Y11600
X11633Y12600
X11633Y13600
X11633Y14600
X11633Y15600
X11633Y16600
X11633Y17600
X11633Y18600
X12633Y18600
X12633Y17600
X12633Y16600
X12633Y15600
X12633Y14600
X12633Y13600
X12633Y12600
X12633Y11600
X12633Y10600
X12633Y9600
X12633Y8600
X12633Y7600
X12633Y6600
X12633Y5600
X12633Y4600
X12633Y3600
X13633Y3600
X13633Y4600
X13633Y5600
X13633Y6600
X13633Y7600
X13633Y8600
X13633Y9600
X13633Y10600
X13633Y11600
X13633Y12600
X13633Y13600
X13633Y14600
X13633Y15600
X13633Y16600
X13633Y17600
X13633Y18600
X14633Y18600
X14633Y17600
X14633Y16600
X14633Y15600
X14633Y14600
X14633Y13600
X14633Y12600
X14633Y11600
X14633Y10600
X14633Y9600
X14633Y8600
X14633Y7600
X14633Y6600
X14633Y5600
X14633Y4600
X14633Y3600
X15633Y3600
X15633Y4600
X15633Y5600
X15633Y6600
X15633Y7600
X15633Y8600
X15633Y9600
X15633Y10600
X15633Y11600
X15633Y12600
X15633Y13600
X15633Y14600
X15633Y15600
X15633Y16600
X15633Y17600
X15633Y18600
X16633Y18600
X16633Y17600
X16633Y16600
X16633Y15600
X16633Y14600
X16633Y13600
X16633Y12600
X16633Y11600
X16633Y10600
X16633Y9600
X16633Y8600
X16633Y7600
X16633Y6600
X16633Y5600
X16633Y4600
X16633Y3600
X17633Y3600
X17633Y4600
X17633Y5600
X17633Y6600
X17633Y7600
X17633Y8600
X17633Y9600
X17633Y10600
X17633Y11600
X17633Y12600
X17633Y13600
X17633Y14600
X17633Y15600
X17633Y16600
X17633Y17600
X17633Y18600
X18633Y18600
X18633Y17600
X18633Y16600
X18633Y15600
X18633Y14600
X18633Y13600
X18633Y12600
X18633Y11600
X18633Y10600
X18633Y9600
X18633Y8600
X18633Y7600
X18633Y6600
X18633Y5600
X18633Y4600
X18633Y3600
M30
