G75*
%MOIN*%
%OFA0B0*%
%FSLAX25Y25*%
%IPPOS*%
%LPD*%
%AMOC8*
5,1,8,0,0,1.08239X$1,22.5*
%
%ADD10R,0.06716X0.03040*%
%ADD11R,0.06716X0.03040*%
%ADD12R,0.06716X0.03040*%
%ADD13R,0.06716X0.03040*%
%ADD14R,0.06716X0.03040*%
%ADD15R,0.06716X0.03040*%
%ADD16R,0.06716X0.03040*%
%ADD17R,0.06716X0.03040*%
%ADD18R,0.06716X0.03040*%
%ADD19R,0.06706X0.06706*%
D10*
X0021231Y0026905D03*
X0021231Y0046905D03*
X0021231Y0056905D03*
X0021231Y0066905D03*
X0041231Y0066905D03*
X0051231Y0066905D03*
X0061231Y0066905D03*
X0061231Y0056905D03*
X0051231Y0056905D03*
X0041231Y0056905D03*
X0041231Y0046905D03*
X0051231Y0046905D03*
X0061231Y0046905D03*
X0061231Y0026905D03*
X0051231Y0026905D03*
X0041231Y0026905D03*
X0101231Y0026905D03*
X0111231Y0026905D03*
X0111231Y0046905D03*
X0111231Y0056905D03*
X0111231Y0066905D03*
X0101231Y0066905D03*
X0101231Y0056905D03*
X0101231Y0046905D03*
X0101231Y0106905D03*
X0111231Y0106905D03*
X0111231Y0146905D03*
X0101231Y0146905D03*
X0101231Y0176905D03*
X0101231Y0186905D03*
X0111231Y0186905D03*
X0111231Y0176905D03*
X0061231Y0176905D03*
X0061231Y0186905D03*
X0051231Y0186905D03*
X0041231Y0186905D03*
X0041231Y0176905D03*
X0051231Y0176905D03*
X0021231Y0176905D03*
X0021231Y0186905D03*
X0021231Y0146905D03*
X0041231Y0146905D03*
X0051231Y0146905D03*
X0061231Y0146905D03*
X0061231Y0106905D03*
X0051231Y0106905D03*
X0041231Y0106905D03*
X0021231Y0106905D03*
D11*
X0031231Y0106905D03*
X0031231Y0146905D03*
X0031231Y0176905D03*
X0031231Y0186905D03*
X0031231Y0066905D03*
X0031231Y0056905D03*
X0031231Y0046905D03*
X0031231Y0026905D03*
X0161231Y0026905D03*
X0171231Y0026905D03*
X0181231Y0026905D03*
X0181231Y0046905D03*
X0181231Y0056905D03*
X0181231Y0066905D03*
X0171231Y0066905D03*
X0161231Y0066905D03*
X0161231Y0056905D03*
X0171231Y0056905D03*
X0171231Y0046905D03*
X0161231Y0046905D03*
X0161231Y0106905D03*
X0171231Y0106905D03*
X0181231Y0106905D03*
X0181231Y0146905D03*
X0171231Y0146905D03*
X0161231Y0146905D03*
X0161231Y0176905D03*
X0161231Y0186905D03*
X0171231Y0186905D03*
X0181231Y0186905D03*
X0181231Y0176905D03*
X0171231Y0176905D03*
D12*
X0151231Y0176905D03*
X0151231Y0186905D03*
X0141231Y0186905D03*
X0131231Y0186905D03*
X0121231Y0186905D03*
X0121231Y0176905D03*
X0131231Y0176905D03*
X0141231Y0176905D03*
X0141231Y0146905D03*
X0151231Y0146905D03*
X0131231Y0146905D03*
X0121231Y0146905D03*
X0091231Y0146905D03*
X0081231Y0146905D03*
X0071231Y0146905D03*
X0071231Y0176905D03*
X0071231Y0186905D03*
X0081231Y0186905D03*
X0091231Y0186905D03*
X0091231Y0176905D03*
X0081231Y0176905D03*
X0081231Y0106905D03*
X0091231Y0106905D03*
X0071231Y0106905D03*
X0071231Y0066905D03*
X0081231Y0066905D03*
X0091231Y0066905D03*
X0091231Y0056905D03*
X0081231Y0056905D03*
X0071231Y0056905D03*
X0071231Y0046905D03*
X0081231Y0046905D03*
X0091231Y0046905D03*
X0091231Y0026905D03*
X0081231Y0026905D03*
X0071231Y0026905D03*
X0121231Y0026905D03*
X0131231Y0026905D03*
X0141231Y0026905D03*
X0151231Y0026905D03*
X0151231Y0046905D03*
X0151231Y0056905D03*
X0151231Y0066905D03*
X0141231Y0066905D03*
X0131231Y0066905D03*
X0121231Y0066905D03*
X0121231Y0056905D03*
X0131231Y0056905D03*
X0141231Y0056905D03*
X0141231Y0046905D03*
X0131231Y0046905D03*
X0121231Y0046905D03*
X0121231Y0106905D03*
X0131231Y0106905D03*
X0141231Y0106905D03*
X0151231Y0106905D03*
D13*
X0111231Y0096905D03*
X0101231Y0096905D03*
X0101231Y0086905D03*
X0111231Y0086905D03*
X0111231Y0126905D03*
X0111231Y0136905D03*
X0101231Y0136905D03*
X0101231Y0126905D03*
X0101231Y0156905D03*
X0101231Y0166905D03*
X0111231Y0166905D03*
X0111231Y0156905D03*
X0061231Y0156905D03*
X0061231Y0166905D03*
X0051231Y0166905D03*
X0041231Y0166905D03*
X0041231Y0156905D03*
X0051231Y0156905D03*
X0051231Y0136905D03*
X0061231Y0136905D03*
X0061231Y0126905D03*
X0051231Y0126905D03*
X0041231Y0126905D03*
X0041231Y0136905D03*
X0021231Y0136905D03*
X0021231Y0126905D03*
X0021231Y0156905D03*
X0021231Y0166905D03*
X0021231Y0096905D03*
X0021231Y0086905D03*
X0041231Y0086905D03*
X0041231Y0096905D03*
X0051231Y0096905D03*
X0061231Y0096905D03*
X0061231Y0086905D03*
X0051231Y0086905D03*
X0051231Y0036905D03*
X0061231Y0036905D03*
X0041231Y0036905D03*
X0021231Y0036905D03*
X0101231Y0036905D03*
X0111231Y0036905D03*
D14*
X0161231Y0036905D03*
X0171231Y0036905D03*
X0181231Y0036905D03*
X0181231Y0086905D03*
X0181231Y0096905D03*
X0171231Y0096905D03*
X0161231Y0096905D03*
X0161231Y0086905D03*
X0171231Y0086905D03*
X0171231Y0126905D03*
X0171231Y0136905D03*
X0181231Y0136905D03*
X0181231Y0126905D03*
X0161231Y0126905D03*
X0161231Y0136905D03*
X0161231Y0156905D03*
X0161231Y0166905D03*
X0171231Y0166905D03*
X0181231Y0166905D03*
X0181231Y0156905D03*
X0171231Y0156905D03*
X0031231Y0156905D03*
X0031231Y0166905D03*
X0031231Y0136905D03*
X0031231Y0126905D03*
X0031231Y0096905D03*
X0031231Y0086905D03*
X0031231Y0036905D03*
D15*
X0071231Y0036905D03*
X0081231Y0036905D03*
X0091231Y0036905D03*
X0121231Y0036905D03*
X0131231Y0036905D03*
X0141231Y0036905D03*
X0151231Y0036905D03*
X0151231Y0086905D03*
X0151231Y0096905D03*
X0141231Y0096905D03*
X0131231Y0096905D03*
X0121231Y0096905D03*
X0121231Y0086905D03*
X0131231Y0086905D03*
X0141231Y0086905D03*
X0141231Y0126905D03*
X0141231Y0136905D03*
X0151231Y0136905D03*
X0151231Y0126905D03*
X0131231Y0126905D03*
X0131231Y0136905D03*
X0121231Y0136905D03*
X0121231Y0126905D03*
X0121231Y0156905D03*
X0121231Y0166905D03*
X0131231Y0166905D03*
X0141231Y0166905D03*
X0151231Y0166905D03*
X0151231Y0156905D03*
X0141231Y0156905D03*
X0131231Y0156905D03*
X0091231Y0156905D03*
X0091231Y0166905D03*
X0081231Y0166905D03*
X0071231Y0166905D03*
X0071231Y0156905D03*
X0081231Y0156905D03*
X0081231Y0136905D03*
X0091231Y0136905D03*
X0091231Y0126905D03*
X0081231Y0126905D03*
X0071231Y0126905D03*
X0071231Y0136905D03*
X0071231Y0096905D03*
X0081231Y0096905D03*
X0091231Y0096905D03*
X0091231Y0086905D03*
X0081231Y0086905D03*
X0071231Y0086905D03*
D16*
X0061231Y0076905D03*
X0051231Y0076905D03*
X0041231Y0076905D03*
X0021231Y0076905D03*
X0021231Y0116905D03*
X0041231Y0116905D03*
X0051231Y0116905D03*
X0061231Y0116905D03*
X0101231Y0116905D03*
X0111231Y0116905D03*
X0111231Y0076905D03*
X0101231Y0076905D03*
D17*
X0161231Y0076905D03*
X0171231Y0076905D03*
X0181231Y0076905D03*
X0181231Y0116905D03*
X0171231Y0116905D03*
X0161231Y0116905D03*
X0031231Y0116905D03*
X0031231Y0076905D03*
D18*
X0071231Y0076905D03*
X0081231Y0076905D03*
X0091231Y0076905D03*
X0121231Y0076905D03*
X0131231Y0076905D03*
X0141231Y0076905D03*
X0151231Y0076905D03*
X0151231Y0116905D03*
X0141231Y0116905D03*
X0131231Y0116905D03*
X0121231Y0116905D03*
X0091231Y0116905D03*
X0081231Y0116905D03*
X0071231Y0116905D03*
D19*
X0021231Y0022424D03*
X0013231Y0027424D03*
X0021231Y0032424D03*
X0013231Y0037424D03*
X0021231Y0042424D03*
X0013231Y0047424D03*
X0021231Y0052424D03*
X0013231Y0057424D03*
X0021231Y0062424D03*
X0013231Y0067424D03*
X0021231Y0072424D03*
X0013231Y0077424D03*
X0021231Y0082424D03*
X0013231Y0087424D03*
X0021231Y0092424D03*
X0013231Y0097424D03*
X0021231Y0102424D03*
X0013231Y0107424D03*
X0021231Y0112424D03*
X0013231Y0117424D03*
X0021231Y0122424D03*
X0013231Y0127424D03*
X0021231Y0132424D03*
X0013231Y0137424D03*
X0021231Y0142424D03*
X0013231Y0147424D03*
X0021231Y0152424D03*
X0013231Y0157424D03*
X0021231Y0162424D03*
X0013231Y0167424D03*
X0021231Y0172424D03*
X0013231Y0177424D03*
X0021231Y0182424D03*
X0013231Y0187424D03*
X0031231Y0182424D03*
X0041231Y0182424D03*
X0051231Y0182424D03*
X0061231Y0182424D03*
X0071231Y0182424D03*
X0081231Y0182424D03*
X0091231Y0182424D03*
X0101231Y0182424D03*
X0111231Y0182424D03*
X0121231Y0182424D03*
X0131231Y0182424D03*
X0141231Y0182424D03*
X0151231Y0182424D03*
X0161231Y0182424D03*
X0171231Y0182424D03*
X0181231Y0182424D03*
X0181231Y0172424D03*
X0171231Y0172424D03*
X0161231Y0172424D03*
X0151231Y0172424D03*
X0141231Y0172424D03*
X0131231Y0172424D03*
X0121231Y0172424D03*
X0111231Y0172424D03*
X0101231Y0172424D03*
X0091231Y0172424D03*
X0081231Y0172424D03*
X0071231Y0172424D03*
X0061231Y0172424D03*
X0051231Y0172424D03*
X0041231Y0172424D03*
X0031231Y0172424D03*
X0031231Y0162424D03*
X0041231Y0162424D03*
X0051231Y0162424D03*
X0061231Y0162424D03*
X0071231Y0162424D03*
X0081231Y0162424D03*
X0091231Y0162424D03*
X0101231Y0162424D03*
X0111231Y0162424D03*
X0121231Y0162424D03*
X0131231Y0162424D03*
X0141231Y0162424D03*
X0151231Y0162424D03*
X0161231Y0162424D03*
X0171231Y0162424D03*
X0181231Y0162424D03*
X0181231Y0152424D03*
X0171231Y0152424D03*
X0161231Y0152424D03*
X0151231Y0152424D03*
X0141231Y0152424D03*
X0131231Y0152424D03*
X0121231Y0152424D03*
X0111231Y0152424D03*
X0101231Y0152424D03*
X0091231Y0152424D03*
X0081231Y0152424D03*
X0071231Y0152424D03*
X0061231Y0152424D03*
X0051231Y0152424D03*
X0041231Y0152424D03*
X0031231Y0152424D03*
X0031231Y0142424D03*
X0041231Y0142424D03*
X0051231Y0142424D03*
X0061231Y0142424D03*
X0071231Y0142424D03*
X0081231Y0142424D03*
X0091231Y0142424D03*
X0101231Y0142424D03*
X0111231Y0142424D03*
X0121231Y0142424D03*
X0131231Y0142424D03*
X0141231Y0142424D03*
X0151231Y0142424D03*
X0161231Y0142424D03*
X0171231Y0142424D03*
X0181231Y0142424D03*
X0181231Y0132424D03*
X0171231Y0132424D03*
X0161231Y0132424D03*
X0151231Y0132424D03*
X0141231Y0132424D03*
X0131231Y0132424D03*
X0121231Y0132424D03*
X0111231Y0132424D03*
X0101231Y0132424D03*
X0091231Y0132424D03*
X0081231Y0132424D03*
X0071231Y0132424D03*
X0061231Y0132424D03*
X0051231Y0132424D03*
X0041231Y0132424D03*
X0031231Y0132424D03*
X0031231Y0122424D03*
X0041231Y0122424D03*
X0051231Y0122424D03*
X0061231Y0122424D03*
X0071231Y0122424D03*
X0081231Y0122424D03*
X0091231Y0122424D03*
X0101231Y0122424D03*
X0111231Y0122424D03*
X0121231Y0122424D03*
X0131231Y0122424D03*
X0141231Y0122424D03*
X0151231Y0122424D03*
X0161231Y0122424D03*
X0171231Y0122424D03*
X0181231Y0122424D03*
X0181231Y0112424D03*
X0171231Y0112424D03*
X0161231Y0112424D03*
X0151231Y0112424D03*
X0141231Y0112424D03*
X0131231Y0112424D03*
X0121231Y0112424D03*
X0111231Y0112424D03*
X0101231Y0112424D03*
X0091231Y0112424D03*
X0081231Y0112424D03*
X0071231Y0112424D03*
X0061231Y0112424D03*
X0051231Y0112424D03*
X0041231Y0112424D03*
X0031231Y0112424D03*
X0031231Y0102424D03*
X0041231Y0102424D03*
X0051231Y0102424D03*
X0061231Y0102424D03*
X0071231Y0102424D03*
X0081231Y0102424D03*
X0091231Y0102424D03*
X0101231Y0102424D03*
X0111231Y0102424D03*
X0121231Y0102424D03*
X0131231Y0102424D03*
X0141231Y0102424D03*
X0151231Y0102424D03*
X0161231Y0102424D03*
X0171231Y0102424D03*
X0181231Y0102424D03*
X0181231Y0092424D03*
X0171231Y0092424D03*
X0161231Y0092424D03*
X0151231Y0092424D03*
X0141231Y0092424D03*
X0131231Y0092424D03*
X0121231Y0092424D03*
X0111231Y0092424D03*
X0101231Y0092424D03*
X0091231Y0092424D03*
X0081231Y0092424D03*
X0071231Y0092424D03*
X0061231Y0092424D03*
X0051231Y0092424D03*
X0041231Y0092424D03*
X0031231Y0092424D03*
X0031231Y0082424D03*
X0041231Y0082424D03*
X0051231Y0082424D03*
X0061231Y0082424D03*
X0071231Y0082424D03*
X0081231Y0082424D03*
X0091231Y0082424D03*
X0101231Y0082424D03*
X0111231Y0082424D03*
X0121231Y0082424D03*
X0131231Y0082424D03*
X0141231Y0082424D03*
X0151231Y0082424D03*
X0161231Y0082424D03*
X0171231Y0082424D03*
X0181231Y0082424D03*
X0181231Y0072424D03*
X0171231Y0072424D03*
X0161231Y0072424D03*
X0151231Y0072424D03*
X0141231Y0072424D03*
X0131231Y0072424D03*
X0121231Y0072424D03*
X0111231Y0072424D03*
X0101231Y0072424D03*
X0091231Y0072424D03*
X0081231Y0072424D03*
X0071231Y0072424D03*
X0061231Y0072424D03*
X0051231Y0072424D03*
X0041231Y0072424D03*
X0031231Y0072424D03*
X0031231Y0062424D03*
X0041231Y0062424D03*
X0051231Y0062424D03*
X0061231Y0062424D03*
X0071231Y0062424D03*
X0081231Y0062424D03*
X0091231Y0062424D03*
X0101231Y0062424D03*
X0111231Y0062424D03*
X0121231Y0062424D03*
X0131231Y0062424D03*
X0141231Y0062424D03*
X0151231Y0062424D03*
X0161231Y0062424D03*
X0171231Y0062424D03*
X0181231Y0062424D03*
X0181231Y0052424D03*
X0171231Y0052424D03*
X0161231Y0052424D03*
X0151231Y0052424D03*
X0141231Y0052424D03*
X0131231Y0052424D03*
X0121231Y0052424D03*
X0111231Y0052424D03*
X0101231Y0052424D03*
X0091231Y0052424D03*
X0081231Y0052424D03*
X0071231Y0052424D03*
X0061231Y0052424D03*
X0051231Y0052424D03*
X0041231Y0052424D03*
X0031231Y0052424D03*
X0031231Y0042424D03*
X0041231Y0042424D03*
X0051231Y0042424D03*
X0061231Y0042424D03*
X0071231Y0042424D03*
X0081231Y0042424D03*
X0091231Y0042424D03*
X0101231Y0042424D03*
X0111231Y0042424D03*
X0121231Y0042424D03*
X0131231Y0042424D03*
X0141231Y0042424D03*
X0151231Y0042424D03*
X0161231Y0042424D03*
X0171231Y0042424D03*
X0181231Y0042424D03*
X0181231Y0032424D03*
X0171231Y0032424D03*
X0161231Y0032424D03*
X0151231Y0032424D03*
X0141231Y0032424D03*
X0131231Y0032424D03*
X0121231Y0032424D03*
X0111231Y0032424D03*
X0101231Y0032424D03*
X0091231Y0032424D03*
X0081231Y0032424D03*
X0071231Y0032424D03*
X0061231Y0032424D03*
X0051231Y0032424D03*
X0041231Y0032424D03*
X0031231Y0032424D03*
X0031231Y0022424D03*
X0036231Y0014424D03*
X0041231Y0022424D03*
X0046231Y0014424D03*
X0051231Y0022424D03*
X0056231Y0014424D03*
X0061231Y0022424D03*
X0066231Y0014424D03*
X0071231Y0022424D03*
X0076231Y0014424D03*
X0081231Y0022424D03*
X0086231Y0014424D03*
X0091231Y0022424D03*
X0096231Y0014424D03*
X0101231Y0022424D03*
X0106231Y0014424D03*
X0111231Y0022424D03*
X0116231Y0014424D03*
X0121231Y0022424D03*
X0126231Y0014424D03*
X0131231Y0022424D03*
X0136231Y0014424D03*
X0141231Y0022424D03*
X0146231Y0014424D03*
X0151231Y0022424D03*
X0156231Y0014424D03*
X0161231Y0022424D03*
X0166231Y0014424D03*
X0171231Y0022424D03*
X0176231Y0014424D03*
X0181231Y0022424D03*
X0186231Y0014424D03*
X0026231Y0014424D03*
M02*
