G75*
%MOIN*%
%OFA0B0*%
%FSLAX25Y25*%
%IPPOS*%
%LPD*%
%AMOC8*
5,1,8,0,0,1.08239X$1,22.5*
%
%ADD10R,0.03530X0.06716*%
%ADD11R,0.03530X0.06716*%
%ADD12R,0.03530X0.06716*%
%ADD13R,0.03530X0.06716*%
%ADD14R,0.03530X0.06716*%
%ADD15R,0.03530X0.06716*%
%ADD16R,0.03530X0.06716*%
%ADD17R,0.03530X0.06716*%
%ADD18R,0.03530X0.06716*%
%ADD19R,0.06706X0.06706*%
D10*
X0025467Y0022424D03*
X0045467Y0022424D03*
X0055467Y0022424D03*
X0065467Y0022424D03*
X0065467Y0042424D03*
X0065467Y0052424D03*
X0065467Y0062424D03*
X0055467Y0062424D03*
X0055467Y0052424D03*
X0055467Y0042424D03*
X0045467Y0042424D03*
X0045467Y0052424D03*
X0045467Y0062424D03*
X0025467Y0062424D03*
X0025467Y0052424D03*
X0025467Y0042424D03*
X0025467Y0102424D03*
X0025467Y0112424D03*
X0045467Y0112424D03*
X0055467Y0112424D03*
X0065467Y0112424D03*
X0065467Y0102424D03*
X0055467Y0102424D03*
X0045467Y0102424D03*
X0145467Y0102424D03*
X0155467Y0102424D03*
X0155467Y0112424D03*
X0145467Y0112424D03*
X0175467Y0112424D03*
X0185467Y0112424D03*
X0185467Y0102424D03*
X0175467Y0102424D03*
X0175467Y0062424D03*
X0185467Y0062424D03*
X0185467Y0052424D03*
X0175467Y0052424D03*
X0175467Y0042424D03*
X0185467Y0042424D03*
X0185467Y0022424D03*
X0175467Y0022424D03*
X0155467Y0022424D03*
X0145467Y0022424D03*
X0145467Y0042424D03*
X0155467Y0042424D03*
X0155467Y0052424D03*
X0155467Y0062424D03*
X0145467Y0062424D03*
X0145467Y0052424D03*
D11*
X0165467Y0052424D03*
X0165467Y0062424D03*
X0165467Y0042424D03*
X0165467Y0022424D03*
X0125467Y0022424D03*
X0115467Y0022424D03*
X0105467Y0022424D03*
X0105467Y0042424D03*
X0115467Y0042424D03*
X0125467Y0042424D03*
X0125467Y0052424D03*
X0125467Y0062424D03*
X0115467Y0062424D03*
X0115467Y0052424D03*
X0105467Y0052424D03*
X0105467Y0062424D03*
X0085467Y0062424D03*
X0085467Y0052424D03*
X0085467Y0042424D03*
X0075467Y0042424D03*
X0075467Y0052424D03*
X0075467Y0062424D03*
X0075467Y0102424D03*
X0085467Y0102424D03*
X0085467Y0112424D03*
X0075467Y0112424D03*
X0105467Y0112424D03*
X0115467Y0112424D03*
X0125467Y0112424D03*
X0125467Y0102424D03*
X0115467Y0102424D03*
X0105467Y0102424D03*
X0165467Y0102424D03*
X0165467Y0112424D03*
X0085467Y0022424D03*
X0075467Y0022424D03*
X0035467Y0022424D03*
X0035467Y0042424D03*
X0035467Y0052424D03*
X0035467Y0062424D03*
X0035467Y0102424D03*
X0035467Y0112424D03*
D12*
X0095467Y0112424D03*
X0095467Y0102424D03*
X0135467Y0102424D03*
X0135467Y0112424D03*
X0135467Y0062424D03*
X0135467Y0052424D03*
X0135467Y0042424D03*
X0135467Y0022424D03*
X0095467Y0022424D03*
X0095467Y0042424D03*
X0095467Y0052424D03*
X0095467Y0062424D03*
D13*
X0065467Y0032424D03*
X0055467Y0032424D03*
X0045467Y0032424D03*
X0025467Y0032424D03*
X0145467Y0032424D03*
X0155467Y0032424D03*
X0175467Y0032424D03*
X0185467Y0032424D03*
X0185467Y0162424D03*
X0175467Y0162424D03*
X0175467Y0172424D03*
X0185467Y0172424D03*
X0185467Y0182424D03*
X0175467Y0182424D03*
X0155467Y0182424D03*
X0155467Y0172424D03*
X0155467Y0162424D03*
X0145467Y0162424D03*
X0145467Y0172424D03*
X0145467Y0182424D03*
X0065467Y0182424D03*
X0065467Y0172424D03*
X0065467Y0162424D03*
X0055467Y0162424D03*
X0055467Y0172424D03*
X0055467Y0182424D03*
X0045467Y0182424D03*
X0045467Y0172424D03*
X0045467Y0162424D03*
X0025467Y0162424D03*
X0025467Y0172424D03*
X0025467Y0182424D03*
D14*
X0035467Y0182424D03*
X0035467Y0172424D03*
X0035467Y0162424D03*
X0075467Y0162424D03*
X0085467Y0162424D03*
X0085467Y0172424D03*
X0085467Y0182424D03*
X0075467Y0182424D03*
X0075467Y0172424D03*
X0105467Y0172424D03*
X0115467Y0172424D03*
X0125467Y0172424D03*
X0125467Y0182424D03*
X0115467Y0182424D03*
X0105467Y0182424D03*
X0105467Y0162424D03*
X0115467Y0162424D03*
X0125467Y0162424D03*
X0165467Y0162424D03*
X0165467Y0172424D03*
X0165467Y0182424D03*
X0165467Y0032424D03*
X0125467Y0032424D03*
X0115467Y0032424D03*
X0105467Y0032424D03*
X0085467Y0032424D03*
X0075467Y0032424D03*
X0035467Y0032424D03*
D15*
X0095467Y0032424D03*
X0135467Y0032424D03*
X0135467Y0162424D03*
X0135467Y0172424D03*
X0135467Y0182424D03*
X0095467Y0182424D03*
X0095467Y0172424D03*
X0095467Y0162424D03*
D16*
X0065467Y0152424D03*
X0065467Y0142424D03*
X0065467Y0132424D03*
X0065467Y0122424D03*
X0055467Y0122424D03*
X0055467Y0132424D03*
X0055467Y0142424D03*
X0055467Y0152424D03*
X0045467Y0152424D03*
X0045467Y0142424D03*
X0045467Y0132424D03*
X0045467Y0122424D03*
X0025467Y0122424D03*
X0025467Y0132424D03*
X0025467Y0142424D03*
X0025467Y0152424D03*
X0025467Y0092424D03*
X0025467Y0082424D03*
X0025467Y0072424D03*
X0045467Y0072424D03*
X0055467Y0072424D03*
X0065467Y0072424D03*
X0065467Y0082424D03*
X0065467Y0092424D03*
X0055467Y0092424D03*
X0055467Y0082424D03*
X0045467Y0082424D03*
X0045467Y0092424D03*
X0145467Y0092424D03*
X0155467Y0092424D03*
X0155467Y0082424D03*
X0155467Y0072424D03*
X0145467Y0072424D03*
X0145467Y0082424D03*
X0175467Y0082424D03*
X0185467Y0082424D03*
X0185467Y0092424D03*
X0175467Y0092424D03*
X0175467Y0072424D03*
X0185467Y0072424D03*
X0185467Y0122424D03*
X0175467Y0122424D03*
X0175467Y0132424D03*
X0185467Y0132424D03*
X0185467Y0142424D03*
X0175467Y0142424D03*
X0175467Y0152424D03*
X0185467Y0152424D03*
X0155467Y0152424D03*
X0155467Y0142424D03*
X0155467Y0132424D03*
X0155467Y0122424D03*
X0145467Y0122424D03*
X0145467Y0132424D03*
X0145467Y0142424D03*
X0145467Y0152424D03*
D17*
X0165467Y0152424D03*
X0165467Y0142424D03*
X0165467Y0132424D03*
X0165467Y0122424D03*
X0165467Y0092424D03*
X0165467Y0082424D03*
X0165467Y0072424D03*
X0125467Y0072424D03*
X0125467Y0082424D03*
X0125467Y0092424D03*
X0115467Y0092424D03*
X0115467Y0082424D03*
X0115467Y0072424D03*
X0105467Y0072424D03*
X0105467Y0082424D03*
X0105467Y0092424D03*
X0085467Y0092424D03*
X0085467Y0082424D03*
X0085467Y0072424D03*
X0075467Y0072424D03*
X0075467Y0082424D03*
X0075467Y0092424D03*
X0075467Y0122424D03*
X0085467Y0122424D03*
X0085467Y0132424D03*
X0085467Y0142424D03*
X0085467Y0152424D03*
X0075467Y0152424D03*
X0075467Y0142424D03*
X0075467Y0132424D03*
X0105467Y0132424D03*
X0115467Y0132424D03*
X0125467Y0132424D03*
X0125467Y0142424D03*
X0125467Y0152424D03*
X0115467Y0152424D03*
X0115467Y0142424D03*
X0105467Y0142424D03*
X0105467Y0152424D03*
X0105467Y0122424D03*
X0115467Y0122424D03*
X0125467Y0122424D03*
X0035467Y0122424D03*
X0035467Y0132424D03*
X0035467Y0142424D03*
X0035467Y0152424D03*
X0035467Y0092424D03*
X0035467Y0082424D03*
X0035467Y0072424D03*
D18*
X0095467Y0072424D03*
X0095467Y0082424D03*
X0095467Y0092424D03*
X0095467Y0122424D03*
X0095467Y0132424D03*
X0095467Y0142424D03*
X0095467Y0152424D03*
X0135467Y0152424D03*
X0135467Y0142424D03*
X0135467Y0132424D03*
X0135467Y0122424D03*
X0135467Y0092424D03*
X0135467Y0082424D03*
X0135467Y0072424D03*
D19*
X0021231Y0022424D03*
X0013231Y0027424D03*
X0021231Y0032424D03*
X0013231Y0037424D03*
X0021231Y0042424D03*
X0013231Y0047424D03*
X0021231Y0052424D03*
X0013231Y0057424D03*
X0021231Y0062424D03*
X0013231Y0067424D03*
X0021231Y0072424D03*
X0013231Y0077424D03*
X0021231Y0082424D03*
X0013231Y0087424D03*
X0021231Y0092424D03*
X0013231Y0097424D03*
X0021231Y0102424D03*
X0013231Y0107424D03*
X0021231Y0112424D03*
X0013231Y0117424D03*
X0021231Y0122424D03*
X0013231Y0127424D03*
X0021231Y0132424D03*
X0013231Y0137424D03*
X0021231Y0142424D03*
X0013231Y0147424D03*
X0021231Y0152424D03*
X0013231Y0157424D03*
X0021231Y0162424D03*
X0013231Y0167424D03*
X0021231Y0172424D03*
X0013231Y0177424D03*
X0021231Y0182424D03*
X0013231Y0187424D03*
X0031231Y0182424D03*
X0041231Y0182424D03*
X0051231Y0182424D03*
X0061231Y0182424D03*
X0071231Y0182424D03*
X0081231Y0182424D03*
X0091231Y0182424D03*
X0101231Y0182424D03*
X0111231Y0182424D03*
X0121231Y0182424D03*
X0131231Y0182424D03*
X0141231Y0182424D03*
X0151231Y0182424D03*
X0161231Y0182424D03*
X0171231Y0182424D03*
X0181231Y0182424D03*
X0181231Y0172424D03*
X0171231Y0172424D03*
X0161231Y0172424D03*
X0151231Y0172424D03*
X0141231Y0172424D03*
X0131231Y0172424D03*
X0121231Y0172424D03*
X0111231Y0172424D03*
X0101231Y0172424D03*
X0091231Y0172424D03*
X0081231Y0172424D03*
X0071231Y0172424D03*
X0061231Y0172424D03*
X0051231Y0172424D03*
X0041231Y0172424D03*
X0031231Y0172424D03*
X0031231Y0162424D03*
X0041231Y0162424D03*
X0051231Y0162424D03*
X0061231Y0162424D03*
X0071231Y0162424D03*
X0081231Y0162424D03*
X0091231Y0162424D03*
X0101231Y0162424D03*
X0111231Y0162424D03*
X0121231Y0162424D03*
X0131231Y0162424D03*
X0141231Y0162424D03*
X0151231Y0162424D03*
X0161231Y0162424D03*
X0171231Y0162424D03*
X0181231Y0162424D03*
X0181231Y0152424D03*
X0171231Y0152424D03*
X0161231Y0152424D03*
X0151231Y0152424D03*
X0141231Y0152424D03*
X0131231Y0152424D03*
X0121231Y0152424D03*
X0111231Y0152424D03*
X0101231Y0152424D03*
X0091231Y0152424D03*
X0081231Y0152424D03*
X0071231Y0152424D03*
X0061231Y0152424D03*
X0051231Y0152424D03*
X0041231Y0152424D03*
X0031231Y0152424D03*
X0031231Y0142424D03*
X0041231Y0142424D03*
X0051231Y0142424D03*
X0061231Y0142424D03*
X0071231Y0142424D03*
X0081231Y0142424D03*
X0091231Y0142424D03*
X0101231Y0142424D03*
X0111231Y0142424D03*
X0121231Y0142424D03*
X0131231Y0142424D03*
X0141231Y0142424D03*
X0151231Y0142424D03*
X0161231Y0142424D03*
X0171231Y0142424D03*
X0181231Y0142424D03*
X0181231Y0132424D03*
X0171231Y0132424D03*
X0161231Y0132424D03*
X0151231Y0132424D03*
X0141231Y0132424D03*
X0131231Y0132424D03*
X0121231Y0132424D03*
X0111231Y0132424D03*
X0101231Y0132424D03*
X0091231Y0132424D03*
X0081231Y0132424D03*
X0071231Y0132424D03*
X0061231Y0132424D03*
X0051231Y0132424D03*
X0041231Y0132424D03*
X0031231Y0132424D03*
X0031231Y0122424D03*
X0041231Y0122424D03*
X0051231Y0122424D03*
X0061231Y0122424D03*
X0071231Y0122424D03*
X0081231Y0122424D03*
X0091231Y0122424D03*
X0101231Y0122424D03*
X0111231Y0122424D03*
X0121231Y0122424D03*
X0131231Y0122424D03*
X0141231Y0122424D03*
X0151231Y0122424D03*
X0161231Y0122424D03*
X0171231Y0122424D03*
X0181231Y0122424D03*
X0181231Y0112424D03*
X0171231Y0112424D03*
X0161231Y0112424D03*
X0151231Y0112424D03*
X0141231Y0112424D03*
X0131231Y0112424D03*
X0121231Y0112424D03*
X0111231Y0112424D03*
X0101231Y0112424D03*
X0091231Y0112424D03*
X0081231Y0112424D03*
X0071231Y0112424D03*
X0061231Y0112424D03*
X0051231Y0112424D03*
X0041231Y0112424D03*
X0031231Y0112424D03*
X0031231Y0102424D03*
X0041231Y0102424D03*
X0051231Y0102424D03*
X0061231Y0102424D03*
X0071231Y0102424D03*
X0081231Y0102424D03*
X0091231Y0102424D03*
X0101231Y0102424D03*
X0111231Y0102424D03*
X0121231Y0102424D03*
X0131231Y0102424D03*
X0141231Y0102424D03*
X0151231Y0102424D03*
X0161231Y0102424D03*
X0171231Y0102424D03*
X0181231Y0102424D03*
X0181231Y0092424D03*
X0171231Y0092424D03*
X0161231Y0092424D03*
X0151231Y0092424D03*
X0141231Y0092424D03*
X0131231Y0092424D03*
X0121231Y0092424D03*
X0111231Y0092424D03*
X0101231Y0092424D03*
X0091231Y0092424D03*
X0081231Y0092424D03*
X0071231Y0092424D03*
X0061231Y0092424D03*
X0051231Y0092424D03*
X0041231Y0092424D03*
X0031231Y0092424D03*
X0031231Y0082424D03*
X0041231Y0082424D03*
X0051231Y0082424D03*
X0061231Y0082424D03*
X0071231Y0082424D03*
X0081231Y0082424D03*
X0091231Y0082424D03*
X0101231Y0082424D03*
X0111231Y0082424D03*
X0121231Y0082424D03*
X0131231Y0082424D03*
X0141231Y0082424D03*
X0151231Y0082424D03*
X0161231Y0082424D03*
X0171231Y0082424D03*
X0181231Y0082424D03*
X0181231Y0072424D03*
X0171231Y0072424D03*
X0161231Y0072424D03*
X0151231Y0072424D03*
X0141231Y0072424D03*
X0131231Y0072424D03*
X0121231Y0072424D03*
X0111231Y0072424D03*
X0101231Y0072424D03*
X0091231Y0072424D03*
X0081231Y0072424D03*
X0071231Y0072424D03*
X0061231Y0072424D03*
X0051231Y0072424D03*
X0041231Y0072424D03*
X0031231Y0072424D03*
X0031231Y0062424D03*
X0041231Y0062424D03*
X0051231Y0062424D03*
X0061231Y0062424D03*
X0071231Y0062424D03*
X0081231Y0062424D03*
X0091231Y0062424D03*
X0101231Y0062424D03*
X0111231Y0062424D03*
X0121231Y0062424D03*
X0131231Y0062424D03*
X0141231Y0062424D03*
X0151231Y0062424D03*
X0161231Y0062424D03*
X0171231Y0062424D03*
X0181231Y0062424D03*
X0181231Y0052424D03*
X0171231Y0052424D03*
X0161231Y0052424D03*
X0151231Y0052424D03*
X0141231Y0052424D03*
X0131231Y0052424D03*
X0121231Y0052424D03*
X0111231Y0052424D03*
X0101231Y0052424D03*
X0091231Y0052424D03*
X0081231Y0052424D03*
X0071231Y0052424D03*
X0061231Y0052424D03*
X0051231Y0052424D03*
X0041231Y0052424D03*
X0031231Y0052424D03*
X0031231Y0042424D03*
X0041231Y0042424D03*
X0051231Y0042424D03*
X0061231Y0042424D03*
X0071231Y0042424D03*
X0081231Y0042424D03*
X0091231Y0042424D03*
X0101231Y0042424D03*
X0111231Y0042424D03*
X0121231Y0042424D03*
X0131231Y0042424D03*
X0141231Y0042424D03*
X0151231Y0042424D03*
X0161231Y0042424D03*
X0171231Y0042424D03*
X0181231Y0042424D03*
X0181231Y0032424D03*
X0171231Y0032424D03*
X0161231Y0032424D03*
X0151231Y0032424D03*
X0141231Y0032424D03*
X0131231Y0032424D03*
X0121231Y0032424D03*
X0111231Y0032424D03*
X0101231Y0032424D03*
X0091231Y0032424D03*
X0081231Y0032424D03*
X0071231Y0032424D03*
X0061231Y0032424D03*
X0051231Y0032424D03*
X0041231Y0032424D03*
X0031231Y0032424D03*
X0031231Y0022424D03*
X0036231Y0014424D03*
X0041231Y0022424D03*
X0046231Y0014424D03*
X0051231Y0022424D03*
X0056231Y0014424D03*
X0061231Y0022424D03*
X0066231Y0014424D03*
X0071231Y0022424D03*
X0076231Y0014424D03*
X0081231Y0022424D03*
X0086231Y0014424D03*
X0091231Y0022424D03*
X0096231Y0014424D03*
X0101231Y0022424D03*
X0106231Y0014424D03*
X0111231Y0022424D03*
X0116231Y0014424D03*
X0121231Y0022424D03*
X0126231Y0014424D03*
X0131231Y0022424D03*
X0136231Y0014424D03*
X0141231Y0022424D03*
X0146231Y0014424D03*
X0151231Y0022424D03*
X0156231Y0014424D03*
X0161231Y0022424D03*
X0166231Y0014424D03*
X0171231Y0022424D03*
X0176231Y0014424D03*
X0181231Y0022424D03*
X0186231Y0014424D03*
X0026231Y0014424D03*
M02*
