G75*
%MOIN*%
%OFA0B0*%
%FSLAX25Y25*%
%IPPOS*%
%LPD*%
%AMOC8*
5,1,8,0,0,1.08239X$1,22.5*
%
%ADD10R,0.03040X0.06716*%
%ADD11R,0.03040X0.06716*%
%ADD12R,0.03040X0.06716*%
%ADD13R,0.03040X0.06716*%
%ADD14R,0.03040X0.06716*%
%ADD15R,0.03040X0.06716*%
%ADD16R,0.03040X0.06716*%
%ADD17R,0.03040X0.06716*%
%ADD18R,0.03040X0.06716*%
%ADD19R,0.06706X0.06706*%
D10*
X0020814Y0016000D03*
X0020814Y0026000D03*
X0030814Y0026000D03*
X0030814Y0016000D03*
X0080814Y0016000D03*
X0080814Y0026000D03*
X0100814Y0026000D03*
X0100814Y0016000D03*
X0110814Y0016000D03*
X0110814Y0026000D03*
X0120814Y0026000D03*
X0120814Y0016000D03*
X0130814Y0016000D03*
X0130814Y0026000D03*
X0150814Y0026000D03*
X0150814Y0016000D03*
X0160814Y0016000D03*
X0160814Y0026000D03*
X0190814Y0026000D03*
X0190814Y0016000D03*
X0190814Y0136000D03*
X0190814Y0146000D03*
X0190814Y0156000D03*
X0190814Y0166000D03*
X0190814Y0176000D03*
X0190814Y0186000D03*
X0160814Y0186000D03*
X0150814Y0186000D03*
X0150814Y0176000D03*
X0150814Y0166000D03*
X0150814Y0156000D03*
X0150814Y0146000D03*
X0150814Y0136000D03*
X0160814Y0136000D03*
X0160814Y0146000D03*
X0160814Y0156000D03*
X0160814Y0166000D03*
X0160814Y0176000D03*
X0130814Y0176000D03*
X0120814Y0176000D03*
X0110814Y0176000D03*
X0100814Y0176000D03*
X0100814Y0166000D03*
X0100814Y0156000D03*
X0100814Y0146000D03*
X0100814Y0136000D03*
X0110814Y0136000D03*
X0110814Y0146000D03*
X0110814Y0156000D03*
X0110814Y0166000D03*
X0120814Y0166000D03*
X0120814Y0156000D03*
X0120814Y0146000D03*
X0120814Y0136000D03*
X0130814Y0136000D03*
X0130814Y0146000D03*
X0130814Y0156000D03*
X0130814Y0166000D03*
X0130814Y0186000D03*
X0120814Y0186000D03*
X0110814Y0186000D03*
X0100814Y0186000D03*
X0080814Y0186000D03*
X0080814Y0176000D03*
X0080814Y0166000D03*
X0080814Y0156000D03*
X0080814Y0146000D03*
X0080814Y0136000D03*
X0030814Y0136000D03*
X0020814Y0136000D03*
X0020814Y0146000D03*
X0020814Y0156000D03*
X0020814Y0166000D03*
X0020814Y0176000D03*
X0020814Y0186000D03*
X0030814Y0186000D03*
X0030814Y0176000D03*
X0030814Y0166000D03*
X0030814Y0156000D03*
X0030814Y0146000D03*
D11*
X0040814Y0146000D03*
X0040814Y0136000D03*
X0050814Y0136000D03*
X0050814Y0146000D03*
X0050814Y0156000D03*
X0040814Y0156000D03*
X0040814Y0166000D03*
X0040814Y0176000D03*
X0040814Y0186000D03*
X0050814Y0186000D03*
X0050814Y0176000D03*
X0050814Y0166000D03*
X0060814Y0166000D03*
X0060814Y0156000D03*
X0060814Y0146000D03*
X0060814Y0136000D03*
X0060814Y0176000D03*
X0060814Y0186000D03*
X0140814Y0186000D03*
X0140814Y0176000D03*
X0140814Y0166000D03*
X0140814Y0156000D03*
X0140814Y0146000D03*
X0140814Y0136000D03*
X0170814Y0136000D03*
X0170814Y0146000D03*
X0170814Y0156000D03*
X0170814Y0166000D03*
X0170814Y0176000D03*
X0170814Y0186000D03*
X0180814Y0186000D03*
X0180814Y0176000D03*
X0180814Y0166000D03*
X0180814Y0156000D03*
X0180814Y0146000D03*
X0180814Y0136000D03*
X0180814Y0026000D03*
X0170814Y0026000D03*
X0170814Y0016000D03*
X0180814Y0016000D03*
X0140814Y0016000D03*
X0140814Y0026000D03*
X0060814Y0026000D03*
X0050814Y0026000D03*
X0040814Y0026000D03*
X0040814Y0016000D03*
X0050814Y0016000D03*
X0060814Y0016000D03*
D12*
X0070814Y0016000D03*
X0070814Y0026000D03*
X0090814Y0026000D03*
X0090814Y0016000D03*
X0090814Y0136000D03*
X0090814Y0146000D03*
X0090814Y0156000D03*
X0090814Y0166000D03*
X0090814Y0176000D03*
X0090814Y0186000D03*
X0070814Y0186000D03*
X0070814Y0176000D03*
X0070814Y0166000D03*
X0070814Y0156000D03*
X0070814Y0146000D03*
X0070814Y0136000D03*
D13*
X0080814Y0116000D03*
X0080814Y0096000D03*
X0080814Y0076000D03*
X0080814Y0056000D03*
X0080814Y0036000D03*
X0100814Y0036000D03*
X0110814Y0036000D03*
X0120814Y0036000D03*
X0130814Y0036000D03*
X0130814Y0056000D03*
X0120814Y0056000D03*
X0110814Y0056000D03*
X0100814Y0056000D03*
X0100814Y0076000D03*
X0110814Y0076000D03*
X0120814Y0076000D03*
X0130814Y0076000D03*
X0130814Y0096000D03*
X0120814Y0096000D03*
X0110814Y0096000D03*
X0100814Y0096000D03*
X0100814Y0116000D03*
X0110814Y0116000D03*
X0120814Y0116000D03*
X0130814Y0116000D03*
X0150814Y0116000D03*
X0160814Y0116000D03*
X0160814Y0096000D03*
X0150814Y0096000D03*
X0150814Y0076000D03*
X0160814Y0076000D03*
X0160814Y0056000D03*
X0150814Y0056000D03*
X0150814Y0036000D03*
X0160814Y0036000D03*
X0190814Y0036000D03*
X0190814Y0056000D03*
X0190814Y0076000D03*
X0190814Y0096000D03*
X0190814Y0116000D03*
X0030814Y0116000D03*
X0020814Y0116000D03*
X0020814Y0096000D03*
X0030814Y0096000D03*
X0030814Y0076000D03*
X0020814Y0076000D03*
X0020814Y0056000D03*
X0030814Y0056000D03*
X0030814Y0036000D03*
X0020814Y0036000D03*
D14*
X0040814Y0036000D03*
X0050814Y0036000D03*
X0060814Y0036000D03*
X0060814Y0056000D03*
X0050814Y0056000D03*
X0040814Y0056000D03*
X0040814Y0076000D03*
X0050814Y0076000D03*
X0060814Y0076000D03*
X0060814Y0096000D03*
X0050814Y0096000D03*
X0040814Y0096000D03*
X0040814Y0116000D03*
X0050814Y0116000D03*
X0060814Y0116000D03*
X0140814Y0116000D03*
X0140814Y0096000D03*
X0140814Y0076000D03*
X0140814Y0056000D03*
X0140814Y0036000D03*
X0170814Y0036000D03*
X0180814Y0036000D03*
X0180814Y0056000D03*
X0170814Y0056000D03*
X0170814Y0076000D03*
X0180814Y0076000D03*
X0180814Y0096000D03*
X0170814Y0096000D03*
X0170814Y0116000D03*
X0180814Y0116000D03*
D15*
X0090814Y0116000D03*
X0070814Y0116000D03*
X0070814Y0096000D03*
X0070814Y0076000D03*
X0070814Y0056000D03*
X0070814Y0036000D03*
X0090814Y0036000D03*
X0090814Y0056000D03*
X0090814Y0076000D03*
X0090814Y0096000D03*
D16*
X0080814Y0086000D03*
X0080814Y0066000D03*
X0080814Y0046000D03*
X0100814Y0046000D03*
X0110814Y0046000D03*
X0120814Y0046000D03*
X0130814Y0046000D03*
X0130814Y0066000D03*
X0120814Y0066000D03*
X0110814Y0066000D03*
X0100814Y0066000D03*
X0100814Y0086000D03*
X0110814Y0086000D03*
X0120814Y0086000D03*
X0130814Y0086000D03*
X0130814Y0106000D03*
X0120814Y0106000D03*
X0110814Y0106000D03*
X0100814Y0106000D03*
X0080814Y0106000D03*
X0080814Y0126000D03*
X0100814Y0126000D03*
X0110814Y0126000D03*
X0120814Y0126000D03*
X0130814Y0126000D03*
X0150814Y0126000D03*
X0160814Y0126000D03*
X0160814Y0106000D03*
X0150814Y0106000D03*
X0150814Y0086000D03*
X0160814Y0086000D03*
X0160814Y0066000D03*
X0150814Y0066000D03*
X0150814Y0046000D03*
X0160814Y0046000D03*
X0190814Y0046000D03*
X0190814Y0066000D03*
X0190814Y0086000D03*
X0190814Y0106000D03*
X0190814Y0126000D03*
X0030814Y0126000D03*
X0020814Y0126000D03*
X0020814Y0106000D03*
X0030814Y0106000D03*
X0030814Y0086000D03*
X0020814Y0086000D03*
X0020814Y0066000D03*
X0030814Y0066000D03*
X0030814Y0046000D03*
X0020814Y0046000D03*
D17*
X0040814Y0046000D03*
X0050814Y0046000D03*
X0060814Y0046000D03*
X0060814Y0066000D03*
X0050814Y0066000D03*
X0040814Y0066000D03*
X0040814Y0086000D03*
X0050814Y0086000D03*
X0060814Y0086000D03*
X0060814Y0106000D03*
X0050814Y0106000D03*
X0040814Y0106000D03*
X0040814Y0126000D03*
X0050814Y0126000D03*
X0060814Y0126000D03*
X0140814Y0126000D03*
X0140814Y0106000D03*
X0140814Y0086000D03*
X0140814Y0066000D03*
X0140814Y0046000D03*
X0170814Y0046000D03*
X0180814Y0046000D03*
X0180814Y0066000D03*
X0170814Y0066000D03*
X0170814Y0086000D03*
X0180814Y0086000D03*
X0180814Y0106000D03*
X0170814Y0106000D03*
X0170814Y0126000D03*
X0180814Y0126000D03*
D18*
X0090814Y0126000D03*
X0070814Y0126000D03*
X0070814Y0106000D03*
X0070814Y0086000D03*
X0070814Y0066000D03*
X0070814Y0046000D03*
X0090814Y0046000D03*
X0090814Y0066000D03*
X0090814Y0086000D03*
X0090814Y0106000D03*
D19*
X0016333Y0016000D03*
X0008333Y0021000D03*
X0016333Y0026000D03*
X0008333Y0031000D03*
X0016333Y0036000D03*
X0008333Y0041000D03*
X0016333Y0046000D03*
X0008333Y0051000D03*
X0016333Y0056000D03*
X0008333Y0061000D03*
X0016333Y0066000D03*
X0008333Y0071000D03*
X0016333Y0076000D03*
X0008333Y0081000D03*
X0016333Y0086000D03*
X0008333Y0091000D03*
X0016333Y0096000D03*
X0008333Y0101000D03*
X0016333Y0106000D03*
X0008333Y0111000D03*
X0016333Y0116000D03*
X0008333Y0121000D03*
X0016333Y0126000D03*
X0008333Y0131000D03*
X0016333Y0136000D03*
X0008333Y0141000D03*
X0016333Y0146000D03*
X0008333Y0151000D03*
X0016333Y0156000D03*
X0008333Y0161000D03*
X0016333Y0166000D03*
X0008333Y0171000D03*
X0016333Y0176000D03*
X0008333Y0181000D03*
X0016333Y0186000D03*
X0008333Y0191000D03*
X0026333Y0186000D03*
X0026333Y0176000D03*
X0026333Y0166000D03*
X0026333Y0156000D03*
X0026333Y0146000D03*
X0026333Y0136000D03*
X0026333Y0126000D03*
X0026333Y0116000D03*
X0026333Y0106000D03*
X0026333Y0096000D03*
X0026333Y0086000D03*
X0026333Y0076000D03*
X0026333Y0066000D03*
X0026333Y0056000D03*
X0026333Y0046000D03*
X0026333Y0036000D03*
X0026333Y0026000D03*
X0026333Y0016000D03*
X0021333Y0008000D03*
X0031333Y0008000D03*
X0036333Y0016000D03*
X0041333Y0008000D03*
X0046333Y0016000D03*
X0051333Y0008000D03*
X0056333Y0016000D03*
X0061333Y0008000D03*
X0066333Y0016000D03*
X0071333Y0008000D03*
X0076333Y0016000D03*
X0081333Y0008000D03*
X0086333Y0016000D03*
X0091333Y0008000D03*
X0096333Y0016000D03*
X0101333Y0008000D03*
X0106333Y0016000D03*
X0111333Y0008000D03*
X0116333Y0016000D03*
X0121333Y0008000D03*
X0126333Y0016000D03*
X0131333Y0008000D03*
X0136333Y0016000D03*
X0141333Y0008000D03*
X0146333Y0016000D03*
X0151333Y0008000D03*
X0156333Y0016000D03*
X0161333Y0008000D03*
X0166333Y0016000D03*
X0171333Y0008000D03*
X0176333Y0016000D03*
X0181333Y0008000D03*
X0186333Y0016000D03*
X0191333Y0008000D03*
X0186333Y0026000D03*
X0176333Y0026000D03*
X0166333Y0026000D03*
X0156333Y0026000D03*
X0146333Y0026000D03*
X0136333Y0026000D03*
X0126333Y0026000D03*
X0116333Y0026000D03*
X0106333Y0026000D03*
X0096333Y0026000D03*
X0086333Y0026000D03*
X0076333Y0026000D03*
X0066333Y0026000D03*
X0056333Y0026000D03*
X0046333Y0026000D03*
X0036333Y0026000D03*
X0036333Y0036000D03*
X0036333Y0046000D03*
X0036333Y0056000D03*
X0036333Y0066000D03*
X0036333Y0076000D03*
X0036333Y0086000D03*
X0036333Y0096000D03*
X0036333Y0106000D03*
X0036333Y0116000D03*
X0036333Y0126000D03*
X0036333Y0136000D03*
X0036333Y0146000D03*
X0036333Y0156000D03*
X0036333Y0166000D03*
X0036333Y0176000D03*
X0036333Y0186000D03*
X0046333Y0186000D03*
X0046333Y0176000D03*
X0046333Y0166000D03*
X0046333Y0156000D03*
X0046333Y0146000D03*
X0046333Y0136000D03*
X0046333Y0126000D03*
X0046333Y0116000D03*
X0046333Y0106000D03*
X0046333Y0096000D03*
X0046333Y0086000D03*
X0046333Y0076000D03*
X0046333Y0066000D03*
X0046333Y0056000D03*
X0046333Y0046000D03*
X0046333Y0036000D03*
X0056333Y0036000D03*
X0056333Y0046000D03*
X0056333Y0056000D03*
X0056333Y0066000D03*
X0056333Y0076000D03*
X0056333Y0086000D03*
X0056333Y0096000D03*
X0056333Y0106000D03*
X0056333Y0116000D03*
X0056333Y0126000D03*
X0056333Y0136000D03*
X0056333Y0146000D03*
X0056333Y0156000D03*
X0056333Y0166000D03*
X0056333Y0176000D03*
X0056333Y0186000D03*
X0066333Y0186000D03*
X0066333Y0176000D03*
X0066333Y0166000D03*
X0066333Y0156000D03*
X0066333Y0146000D03*
X0066333Y0136000D03*
X0066333Y0126000D03*
X0066333Y0116000D03*
X0066333Y0106000D03*
X0066333Y0096000D03*
X0066333Y0086000D03*
X0066333Y0076000D03*
X0066333Y0066000D03*
X0066333Y0056000D03*
X0066333Y0046000D03*
X0066333Y0036000D03*
X0076333Y0036000D03*
X0076333Y0046000D03*
X0076333Y0056000D03*
X0076333Y0066000D03*
X0076333Y0076000D03*
X0076333Y0086000D03*
X0076333Y0096000D03*
X0076333Y0106000D03*
X0076333Y0116000D03*
X0076333Y0126000D03*
X0076333Y0136000D03*
X0076333Y0146000D03*
X0076333Y0156000D03*
X0076333Y0166000D03*
X0076333Y0176000D03*
X0076333Y0186000D03*
X0086333Y0186000D03*
X0086333Y0176000D03*
X0086333Y0166000D03*
X0086333Y0156000D03*
X0086333Y0146000D03*
X0086333Y0136000D03*
X0086333Y0126000D03*
X0086333Y0116000D03*
X0086333Y0106000D03*
X0086333Y0096000D03*
X0086333Y0086000D03*
X0086333Y0076000D03*
X0086333Y0066000D03*
X0086333Y0056000D03*
X0086333Y0046000D03*
X0086333Y0036000D03*
X0096333Y0036000D03*
X0096333Y0046000D03*
X0096333Y0056000D03*
X0096333Y0066000D03*
X0096333Y0076000D03*
X0096333Y0086000D03*
X0096333Y0096000D03*
X0096333Y0106000D03*
X0096333Y0116000D03*
X0096333Y0126000D03*
X0096333Y0136000D03*
X0096333Y0146000D03*
X0096333Y0156000D03*
X0096333Y0166000D03*
X0096333Y0176000D03*
X0096333Y0186000D03*
X0106333Y0186000D03*
X0106333Y0176000D03*
X0106333Y0166000D03*
X0106333Y0156000D03*
X0106333Y0146000D03*
X0106333Y0136000D03*
X0106333Y0126000D03*
X0106333Y0116000D03*
X0106333Y0106000D03*
X0106333Y0096000D03*
X0106333Y0086000D03*
X0106333Y0076000D03*
X0106333Y0066000D03*
X0106333Y0056000D03*
X0106333Y0046000D03*
X0106333Y0036000D03*
X0116333Y0036000D03*
X0116333Y0046000D03*
X0116333Y0056000D03*
X0116333Y0066000D03*
X0116333Y0076000D03*
X0116333Y0086000D03*
X0116333Y0096000D03*
X0116333Y0106000D03*
X0116333Y0116000D03*
X0116333Y0126000D03*
X0116333Y0136000D03*
X0116333Y0146000D03*
X0116333Y0156000D03*
X0116333Y0166000D03*
X0116333Y0176000D03*
X0116333Y0186000D03*
X0126333Y0186000D03*
X0126333Y0176000D03*
X0126333Y0166000D03*
X0126333Y0156000D03*
X0126333Y0146000D03*
X0126333Y0136000D03*
X0126333Y0126000D03*
X0126333Y0116000D03*
X0126333Y0106000D03*
X0126333Y0096000D03*
X0126333Y0086000D03*
X0126333Y0076000D03*
X0126333Y0066000D03*
X0126333Y0056000D03*
X0126333Y0046000D03*
X0126333Y0036000D03*
X0136333Y0036000D03*
X0136333Y0046000D03*
X0136333Y0056000D03*
X0136333Y0066000D03*
X0136333Y0076000D03*
X0136333Y0086000D03*
X0136333Y0096000D03*
X0136333Y0106000D03*
X0136333Y0116000D03*
X0136333Y0126000D03*
X0136333Y0136000D03*
X0136333Y0146000D03*
X0136333Y0156000D03*
X0136333Y0166000D03*
X0136333Y0176000D03*
X0136333Y0186000D03*
X0146333Y0186000D03*
X0146333Y0176000D03*
X0146333Y0166000D03*
X0146333Y0156000D03*
X0146333Y0146000D03*
X0146333Y0136000D03*
X0146333Y0126000D03*
X0146333Y0116000D03*
X0146333Y0106000D03*
X0146333Y0096000D03*
X0146333Y0086000D03*
X0146333Y0076000D03*
X0146333Y0066000D03*
X0146333Y0056000D03*
X0146333Y0046000D03*
X0146333Y0036000D03*
X0156333Y0036000D03*
X0156333Y0046000D03*
X0156333Y0056000D03*
X0156333Y0066000D03*
X0156333Y0076000D03*
X0156333Y0086000D03*
X0156333Y0096000D03*
X0156333Y0106000D03*
X0156333Y0116000D03*
X0156333Y0126000D03*
X0156333Y0136000D03*
X0156333Y0146000D03*
X0156333Y0156000D03*
X0156333Y0166000D03*
X0156333Y0176000D03*
X0156333Y0186000D03*
X0166333Y0186000D03*
X0166333Y0176000D03*
X0166333Y0166000D03*
X0166333Y0156000D03*
X0166333Y0146000D03*
X0166333Y0136000D03*
X0166333Y0126000D03*
X0166333Y0116000D03*
X0166333Y0106000D03*
X0166333Y0096000D03*
X0166333Y0086000D03*
X0166333Y0076000D03*
X0166333Y0066000D03*
X0166333Y0056000D03*
X0166333Y0046000D03*
X0166333Y0036000D03*
X0176333Y0036000D03*
X0176333Y0046000D03*
X0176333Y0056000D03*
X0176333Y0066000D03*
X0176333Y0076000D03*
X0176333Y0086000D03*
X0176333Y0096000D03*
X0176333Y0106000D03*
X0176333Y0116000D03*
X0176333Y0126000D03*
X0176333Y0136000D03*
X0176333Y0146000D03*
X0176333Y0156000D03*
X0176333Y0166000D03*
X0176333Y0176000D03*
X0176333Y0186000D03*
X0186333Y0186000D03*
X0186333Y0176000D03*
X0186333Y0166000D03*
X0186333Y0156000D03*
X0186333Y0146000D03*
X0186333Y0136000D03*
X0186333Y0126000D03*
X0186333Y0116000D03*
X0186333Y0106000D03*
X0186333Y0096000D03*
X0186333Y0086000D03*
X0186333Y0076000D03*
X0186333Y0066000D03*
X0186333Y0056000D03*
X0186333Y0046000D03*
X0186333Y0036000D03*
M02*
