G75*
%MOIN*%
%OFA0B0*%
%FSLAX25Y25*%
%IPPOS*%
%LPD*%
%AMOC8*
5,1,8,0,0,1.08239X$1,22.5*
%
%ADD10C,0.00300*%
%ADD11C,0.00000*%
D10*
X0004232Y0004213D02*
X0005314Y0006377D01*
X0006413Y0006918D02*
X0006413Y0004754D01*
X0008577Y0006918D01*
X0008577Y0004754D01*
X0008036Y0004213D01*
X0006954Y0004213D01*
X0006413Y0004754D01*
X0006413Y0006918D02*
X0006954Y0007459D01*
X0008036Y0007459D01*
X0008577Y0006918D01*
X0008577Y0008150D02*
X0006954Y0008150D01*
X0006413Y0008691D01*
X0006413Y0009773D01*
X0006954Y0010314D01*
X0008577Y0010314D01*
X0009675Y0009773D02*
X0009675Y0008691D01*
X0010216Y0008150D01*
X0011839Y0008150D01*
X0012389Y0007459D02*
X0011307Y0006377D01*
X0012389Y0007459D02*
X0012389Y0004213D01*
X0011307Y0004213D02*
X0013471Y0004213D01*
X0010216Y0004213D02*
X0009675Y0004213D01*
X0009675Y0004754D01*
X0010216Y0004754D01*
X0010216Y0004213D01*
X0013479Y0008150D02*
X0012938Y0008691D01*
X0012938Y0009773D01*
X0013479Y0010314D01*
X0014561Y0010314D01*
X0015102Y0009773D01*
X0015102Y0009232D01*
X0012938Y0009232D01*
X0013479Y0008150D02*
X0014561Y0008150D01*
X0011839Y0010314D02*
X0010216Y0010314D01*
X0009675Y0009773D01*
X0008588Y0012087D02*
X0009670Y0013169D01*
X0009670Y0014251D01*
X0008588Y0015333D01*
X0007489Y0014792D02*
X0006948Y0015333D01*
X0005866Y0015333D01*
X0005325Y0014792D01*
X0005325Y0012628D01*
X0005866Y0012087D01*
X0006948Y0012087D01*
X0007489Y0012628D01*
X0005314Y0010314D02*
X0005314Y0008150D01*
X0005314Y0009773D02*
X0003150Y0009773D01*
X0003150Y0010314D02*
X0003150Y0008150D01*
X0003150Y0006377D02*
X0004232Y0004213D01*
X0003150Y0010314D02*
X0004232Y0011396D01*
X0005314Y0010314D01*
X0004232Y0012087D02*
X0003150Y0013169D01*
X0003150Y0014251D01*
X0004232Y0015333D01*
X0014852Y0192378D02*
X0014852Y0194542D01*
X0015934Y0195624D01*
X0017016Y0194542D01*
X0017016Y0192378D01*
X0017016Y0194001D02*
X0014852Y0194001D01*
X0024852Y0194001D02*
X0026475Y0194001D01*
X0027016Y0193460D01*
X0027016Y0192919D01*
X0026475Y0192378D01*
X0024852Y0192378D01*
X0024852Y0195624D01*
X0026475Y0195624D01*
X0027016Y0195083D01*
X0027016Y0194542D01*
X0026475Y0194001D01*
X0034852Y0192919D02*
X0035393Y0192378D01*
X0036475Y0192378D01*
X0037016Y0192919D01*
X0034852Y0192919D02*
X0034852Y0195083D01*
X0035393Y0195624D01*
X0036475Y0195624D01*
X0037016Y0195083D01*
X0044852Y0195624D02*
X0044852Y0192378D01*
X0046475Y0192378D01*
X0047016Y0192919D01*
X0047016Y0195083D01*
X0046475Y0195624D01*
X0044852Y0195624D01*
X0054852Y0195624D02*
X0054852Y0192378D01*
X0057016Y0192378D01*
X0055934Y0194001D02*
X0054852Y0194001D01*
X0054852Y0195624D02*
X0057016Y0195624D01*
X0064852Y0195624D02*
X0064852Y0192378D01*
X0064852Y0194001D02*
X0065934Y0194001D01*
X0064852Y0195624D02*
X0067016Y0195624D01*
X0074852Y0195083D02*
X0074852Y0192919D01*
X0075393Y0192378D01*
X0076475Y0192378D01*
X0077016Y0192919D01*
X0077016Y0194001D01*
X0075934Y0194001D01*
X0074852Y0195083D02*
X0075393Y0195624D01*
X0076475Y0195624D01*
X0077016Y0195083D01*
X0084852Y0195624D02*
X0084852Y0192378D01*
X0084852Y0194001D02*
X0087016Y0194001D01*
X0087016Y0195624D02*
X0087016Y0192378D01*
X0095396Y0192378D02*
X0096478Y0192378D01*
X0095937Y0192378D02*
X0095937Y0195624D01*
X0095396Y0195624D02*
X0096478Y0195624D01*
X0104852Y0192919D02*
X0105393Y0192378D01*
X0105934Y0192378D01*
X0106475Y0192919D01*
X0106475Y0195624D01*
X0105934Y0195624D02*
X0107016Y0195624D01*
X0114852Y0195624D02*
X0114852Y0192378D01*
X0114852Y0193460D02*
X0117016Y0195624D01*
X0115393Y0194001D02*
X0117016Y0192378D01*
X0124852Y0192378D02*
X0127016Y0192378D01*
X0124852Y0192378D02*
X0124852Y0195624D01*
X0134852Y0195624D02*
X0134852Y0192378D01*
X0137016Y0192378D02*
X0137016Y0195624D01*
X0135934Y0194542D01*
X0134852Y0195624D01*
X0144852Y0195624D02*
X0144852Y0192378D01*
X0147016Y0192378D02*
X0147016Y0195624D01*
X0144852Y0195624D02*
X0147016Y0192378D01*
X0154852Y0192919D02*
X0155393Y0192378D01*
X0156475Y0192378D01*
X0157016Y0192919D01*
X0157016Y0195083D01*
X0156475Y0195624D01*
X0155393Y0195624D01*
X0154852Y0195083D01*
X0154852Y0192919D01*
X0164852Y0192378D02*
X0164852Y0195624D01*
X0166475Y0195624D01*
X0167016Y0195083D01*
X0167016Y0194001D01*
X0166475Y0193460D01*
X0164852Y0193460D01*
X0174852Y0192919D02*
X0175393Y0192378D01*
X0176475Y0192378D01*
X0177016Y0192919D01*
X0177016Y0195083D01*
X0176475Y0195624D01*
X0175393Y0195624D01*
X0174852Y0195083D01*
X0174852Y0192919D01*
X0175934Y0193460D02*
X0177016Y0192378D01*
X0184852Y0192378D02*
X0184852Y0195624D01*
X0186475Y0195624D01*
X0187016Y0195083D01*
X0187016Y0194001D01*
X0186475Y0193460D01*
X0184852Y0193460D01*
X0185934Y0193460D02*
X0187016Y0192378D01*
X0192352Y0186542D02*
X0193434Y0187624D01*
X0193434Y0184378D01*
X0192352Y0184378D02*
X0194516Y0184378D01*
X0193975Y0177624D02*
X0192893Y0177624D01*
X0192352Y0177083D01*
X0193975Y0177624D02*
X0194516Y0177083D01*
X0194516Y0176542D01*
X0192352Y0174378D01*
X0194516Y0174378D01*
X0193975Y0167624D02*
X0192893Y0167624D01*
X0192352Y0167083D01*
X0193434Y0166001D02*
X0193975Y0166001D01*
X0194516Y0165460D01*
X0194516Y0164919D01*
X0193975Y0164378D01*
X0192893Y0164378D01*
X0192352Y0164919D01*
X0193975Y0166001D02*
X0194516Y0166542D01*
X0194516Y0167083D01*
X0193975Y0167624D01*
X0193975Y0157624D02*
X0192352Y0156001D01*
X0194516Y0156001D01*
X0193975Y0154378D02*
X0193975Y0157624D01*
X0194516Y0147624D02*
X0192352Y0147624D01*
X0192352Y0146001D01*
X0193434Y0146542D01*
X0193975Y0146542D01*
X0194516Y0146001D01*
X0194516Y0144919D01*
X0193975Y0144378D01*
X0192893Y0144378D01*
X0192352Y0144919D01*
X0194516Y0137624D02*
X0193434Y0137083D01*
X0192352Y0136001D01*
X0193975Y0136001D01*
X0194516Y0135460D01*
X0194516Y0134919D01*
X0193975Y0134378D01*
X0192893Y0134378D01*
X0192352Y0134919D01*
X0192352Y0136001D01*
X0192352Y0127624D02*
X0194516Y0127624D01*
X0194516Y0127083D01*
X0192352Y0124919D01*
X0192352Y0124378D01*
X0192893Y0117624D02*
X0193975Y0117624D01*
X0194516Y0117083D01*
X0194516Y0116542D01*
X0193975Y0116001D01*
X0192893Y0116001D01*
X0192352Y0116542D01*
X0192352Y0117083D01*
X0192893Y0117624D01*
X0192893Y0116001D02*
X0192352Y0115460D01*
X0192352Y0114919D01*
X0192893Y0114378D01*
X0193975Y0114378D01*
X0194516Y0114919D01*
X0194516Y0115460D01*
X0193975Y0116001D01*
X0193975Y0107624D02*
X0192893Y0107624D01*
X0192352Y0107083D01*
X0192352Y0106542D01*
X0192893Y0106001D01*
X0194516Y0106001D01*
X0194516Y0104919D02*
X0194516Y0107083D01*
X0193975Y0107624D01*
X0194516Y0104919D02*
X0193975Y0104378D01*
X0192893Y0104378D01*
X0192352Y0104919D01*
X0191803Y0097624D02*
X0191803Y0094378D01*
X0190721Y0094378D02*
X0192885Y0094378D01*
X0193983Y0094919D02*
X0193983Y0097083D01*
X0194524Y0097624D01*
X0195606Y0097624D01*
X0196147Y0097083D01*
X0193983Y0094919D01*
X0194524Y0094378D01*
X0195606Y0094378D01*
X0196147Y0094919D01*
X0196147Y0097083D01*
X0191803Y0097624D02*
X0190721Y0096542D01*
X0191803Y0087624D02*
X0191803Y0084378D01*
X0190721Y0084378D02*
X0192885Y0084378D01*
X0193983Y0084378D02*
X0196147Y0084378D01*
X0195065Y0084378D02*
X0195065Y0087624D01*
X0193983Y0086542D01*
X0191803Y0087624D02*
X0190721Y0086542D01*
X0191803Y0077624D02*
X0191803Y0074378D01*
X0190721Y0074378D02*
X0192885Y0074378D01*
X0193983Y0074378D02*
X0196147Y0076542D01*
X0196147Y0077083D01*
X0195606Y0077624D01*
X0194524Y0077624D01*
X0193983Y0077083D01*
X0191803Y0077624D02*
X0190721Y0076542D01*
X0193983Y0074378D02*
X0196147Y0074378D01*
X0195606Y0067624D02*
X0194524Y0067624D01*
X0193983Y0067083D01*
X0195065Y0066001D02*
X0195606Y0066001D01*
X0196147Y0065460D01*
X0196147Y0064919D01*
X0195606Y0064378D01*
X0194524Y0064378D01*
X0193983Y0064919D01*
X0192885Y0064378D02*
X0190721Y0064378D01*
X0191803Y0064378D02*
X0191803Y0067624D01*
X0190721Y0066542D01*
X0195606Y0066001D02*
X0196147Y0066542D01*
X0196147Y0067083D01*
X0195606Y0067624D01*
X0195606Y0057624D02*
X0193983Y0056001D01*
X0196147Y0056001D01*
X0195606Y0054378D02*
X0195606Y0057624D01*
X0191803Y0057624D02*
X0191803Y0054378D01*
X0190721Y0054378D02*
X0192885Y0054378D01*
X0190721Y0056542D02*
X0191803Y0057624D01*
X0191803Y0047624D02*
X0190721Y0046542D01*
X0191803Y0047624D02*
X0191803Y0044378D01*
X0190721Y0044378D02*
X0192885Y0044378D01*
X0193983Y0044919D02*
X0194524Y0044378D01*
X0195606Y0044378D01*
X0196147Y0044919D01*
X0196147Y0046001D01*
X0195606Y0046542D01*
X0195065Y0046542D01*
X0193983Y0046001D01*
X0193983Y0047624D01*
X0196147Y0047624D01*
X0196147Y0037624D02*
X0195065Y0037083D01*
X0193983Y0036001D01*
X0195606Y0036001D01*
X0196147Y0035460D01*
X0196147Y0034919D01*
X0195606Y0034378D01*
X0194524Y0034378D01*
X0193983Y0034919D01*
X0193983Y0036001D01*
X0192885Y0034378D02*
X0190721Y0034378D01*
X0191803Y0034378D02*
X0191803Y0037624D01*
X0190721Y0036542D01*
X0191803Y0027624D02*
X0190721Y0026542D01*
X0191803Y0027624D02*
X0191803Y0024378D01*
X0190721Y0024378D02*
X0192885Y0024378D01*
X0193983Y0024378D02*
X0193983Y0024919D01*
X0196147Y0027083D01*
X0196147Y0027624D01*
X0193983Y0027624D01*
X0194524Y0017624D02*
X0195606Y0017624D01*
X0196147Y0017083D01*
X0196147Y0016542D01*
X0195606Y0016001D01*
X0194524Y0016001D01*
X0193983Y0016542D01*
X0193983Y0017083D01*
X0194524Y0017624D01*
X0194524Y0016001D02*
X0193983Y0015460D01*
X0193983Y0014919D01*
X0194524Y0014378D01*
X0195606Y0014378D01*
X0196147Y0014919D01*
X0196147Y0015460D01*
X0195606Y0016001D01*
X0192885Y0014378D02*
X0190721Y0014378D01*
X0191803Y0014378D02*
X0191803Y0017624D01*
X0190721Y0016542D01*
D11*
X0198184Y0001000D02*
X0001333Y0001000D01*
X0001333Y0197850D01*
X0198184Y0197850D01*
X0198184Y0001000D01*
M02*
