%
M48
M72
T01C0.0394
%
T01
X2123Y2242
X2623Y1442
X3123Y2242
X3623Y1442
X4123Y2242
X4623Y1442
X5123Y2242
X5623Y1442
X6123Y2242
X6623Y1442
X7123Y2242
X7623Y1442
X8123Y2242
X8623Y1442
X9123Y2242
X9623Y1442
X10123Y2242
X10623Y1442
X11123Y2242
X11623Y1442
X12123Y2242
X12623Y1442
X13123Y2242
X13623Y1442
X14123Y2242
X14623Y1442
X15123Y2242
X15623Y1442
X16123Y2242
X16623Y1442
X17123Y2242
X17623Y1442
X18123Y2242
X18623Y1442
X18123Y3242
X17123Y3242
X16123Y3242
X15123Y3242
X14123Y3242
X13123Y3242
X12123Y3242
X11123Y3242
X10123Y3242
X9123Y3242
X8123Y3242
X7123Y3242
X6123Y3242
X5123Y3242
X4123Y3242
X3123Y3242
X2123Y3242
X1323Y2742
X1323Y3742
X2123Y4242
X1323Y4742
X2123Y5242
X1323Y5742
X2123Y6242
X1323Y6742
X2123Y7242
X1323Y7742
X2123Y8242
X1323Y8742
X2123Y9242
X1323Y9742
X2123Y10242
X1323Y10742
X2123Y11242
X1323Y11742
X2123Y12242
X1323Y12742
X2123Y13242
X1323Y13742
X2123Y14242
X1323Y14742
X2123Y15242
X1323Y15742
X2123Y16242
X1323Y16742
X2123Y17242
X1323Y17742
X2123Y18242
X1323Y18742
X3123Y18242
X3123Y17242
X3123Y16242
X3123Y15242
X3123Y14242
X3123Y13242
X3123Y12242
X3123Y11242
X3123Y10242
X3123Y9242
X3123Y8242
X3123Y7242
X3123Y6242
X3123Y5242
X3123Y4242
X4123Y4242
X5123Y4242
X6123Y4242
X7123Y4242
X8123Y4242
X9123Y4242
X10123Y4242
X11123Y4242
X12123Y4242
X13123Y4242
X14123Y4242
X15123Y4242
X16123Y4242
X17123Y4242
X18123Y4242
X18123Y5242
X17123Y5242
X16123Y5242
X15123Y5242
X14123Y5242
X13123Y5242
X12123Y5242
X11123Y5242
X10123Y5242
X9123Y5242
X8123Y5242
X7123Y5242
X6123Y5242
X5123Y5242
X4123Y5242
X4123Y6242
X5123Y6242
X6123Y6242
X7123Y6242
X8123Y6242
X9123Y6242
X10123Y6242
X11123Y6242
X12123Y6242
X13123Y6242
X14123Y6242
X15123Y6242
X16123Y6242
X17123Y6242
X18123Y6242
X18123Y7242
X17123Y7242
X16123Y7242
X15123Y7242
X14123Y7242
X13123Y7242
X12123Y7242
X11123Y7242
X10123Y7242
X9123Y7242
X8123Y7242
X7123Y7242
X6123Y7242
X5123Y7242
X4123Y7242
X4123Y8242
X5123Y8242
X6123Y8242
X7123Y8242
X8123Y8242
X9123Y8242
X10123Y8242
X11123Y8242
X12123Y8242
X13123Y8242
X14123Y8242
X15123Y8242
X16123Y8242
X17123Y8242
X18123Y8242
X18123Y9242
X17123Y9242
X16123Y9242
X15123Y9242
X14123Y9242
X13123Y9242
X12123Y9242
X11123Y9242
X10123Y9242
X9123Y9242
X8123Y9242
X7123Y9242
X6123Y9242
X5123Y9242
X4123Y9242
X4123Y10242
X5123Y10242
X6123Y10242
X7123Y10242
X8123Y10242
X9123Y10242
X10123Y10242
X11123Y10242
X12123Y10242
X13123Y10242
X14123Y10242
X15123Y10242
X16123Y10242
X17123Y10242
X18123Y10242
X18123Y11242
X17123Y11242
X16123Y11242
X15123Y11242
X14123Y11242
X13123Y11242
X12123Y11242
X11123Y11242
X10123Y11242
X9123Y11242
X8123Y11242
X7123Y11242
X6123Y11242
X5123Y11242
X4123Y11242
X4123Y12242
X5123Y12242
X6123Y12242
X7123Y12242
X8123Y12242
X9123Y12242
X10123Y12242
X11123Y12242
X12123Y12242
X13123Y12242
X14123Y12242
X15123Y12242
X16123Y12242
X17123Y12242
X18123Y12242
X18123Y13242
X17123Y13242
X16123Y13242
X15123Y13242
X14123Y13242
X13123Y13242
X12123Y13242
X11123Y13242
X10123Y13242
X9123Y13242
X8123Y13242
X7123Y13242
X6123Y13242
X5123Y13242
X4123Y13242
X4123Y14242
X5123Y14242
X6123Y14242
X7123Y14242
X8123Y14242
X9123Y14242
X10123Y14242
X11123Y14242
X12123Y14242
X13123Y14242
X14123Y14242
X15123Y14242
X16123Y14242
X17123Y14242
X18123Y14242
X18123Y15242
X17123Y15242
X16123Y15242
X15123Y15242
X14123Y15242
X13123Y15242
X12123Y15242
X11123Y15242
X10123Y15242
X9123Y15242
X8123Y15242
X7123Y15242
X6123Y15242
X5123Y15242
X4123Y15242
X4123Y16242
X5123Y16242
X6123Y16242
X7123Y16242
X8123Y16242
X9123Y16242
X10123Y16242
X11123Y16242
X12123Y16242
X13123Y16242
X14123Y16242
X15123Y16242
X16123Y16242
X17123Y16242
X18123Y16242
X18123Y17242
X17123Y17242
X16123Y17242
X15123Y17242
X14123Y17242
X13123Y17242
X12123Y17242
X11123Y17242
X10123Y17242
X9123Y17242
X8123Y17242
X7123Y17242
X6123Y17242
X5123Y17242
X4123Y17242
X4123Y18242
X5123Y18242
X6123Y18242
X7123Y18242
X8123Y18242
X9123Y18242
X10123Y18242
X11123Y18242
X12123Y18242
X13123Y18242
X14123Y18242
X15123Y18242
X16123Y18242
X17123Y18242
X18123Y18242
M30
